<svg xmlns="http://www.w3.org/2000/svg" width="26" height="26" viewBox="0 0 26 26"><g fill="#fff" transform="translate(5 -1031.362)"><circle cx="657.054" cy="437.094" r="15.268" fill="#239fdb" fill-rule="evenodd" transform="translate(-551.456 672.193) scale(.85146)"/><path fill="#0b5ecd" style="line-height:normal;text-indent:0;text-align:start;text-decoration-line:none;text-decoration-style:solid;text-decoration-color:#000;text-transform:none;block-progression:tb;isolation:auto;mix-blend-mode:normal" d="M 16.103516 25.607422 A 12.999997 12.999997 0 0 0 16.841797 25.419922 A 12.999997 12.999997 0 0 0 18.0625 24.974609 A 12.999997 12.999997 0 0 0 19.232422 24.408203 A 12.999997 12.999997 0 0 0 20.339844 23.728516 A 12.999997 12.999997 0 0 0 21.375 22.943359 A 12.999997 12.999997 0 0 0 22.326172 22.056641 A 12.999997 12.999997 0 0 0 23.183594 21.080078 A 12.999997 12.999997 0 0 0 23.939453 20.023438 A 12.999997 12.999997 0 0 0 24.585938 18.896484 A 12.999997 12.999997 0 0 0 25.117188 17.710938 A 12.999997 12.999997 0 0 0 25.525391 16.476562 A 12.999997 12.999997 0 0 0 25.669922 15.830078 L 17.851562 8.0117188 L 17.847656 8.0078125 C 17.833307 7.9934896 17.817209 7.9809933 17.802734 7.9667969 C 17.504938 7.6746706 17.182773 7.4082686 16.835938 7.1738281 C 16.834738 7.1730172 16.833232 7.1726852 16.832031 7.171875 C 16.650737 7.0495116 16.462547 6.9350363 16.269531 6.8300781 C 15.95144 6.6571306 15.615366 6.5141836 15.269531 6.3925781 C 14.981137 6.2911998 14.687254 6.2030674 14.382812 6.140625 C 14.382812 6.140625 14.380859 6.140625 14.380859 6.140625 C 14.15783 6.0949454 13.931437 6.0585738 13.701172 6.0351562 C 13.470636 6.011683 13.236627 6 13 6 C 9.2185342 6 6.140625 9.0713565 6.140625 12.847656 C 6.140625 13.076817 6.1512845 13.301825 6.171875 13.523438 C 6.1786382 13.596331 6.1922312 13.666254 6.2011719 13.738281 C 6.2196441 13.88702 6.2380295 14.03677 6.265625 14.181641 C 6.2831201 14.273466 6.3089894 14.360973 6.3300781 14.451172 C 6.3569745 14.566242 6.3794677 14.682606 6.4121094 14.794922 C 6.4418864 14.897346 6.481162 14.995663 6.515625 15.095703 C 6.5513942 15.199553 6.5842775 15.305069 6.625 15.40625 C 6.6609542 15.495591 6.7024437 15.580782 6.7421875 15.667969 C 6.7875046 15.767411 6.8307068 15.8683 6.8808594 15.964844 C 6.9286817 16.056837 6.9830317 16.145106 7.0351562 16.234375 C 7.0887901 16.326279 7.1411191 16.41889 7.1992188 16.507812 C 7.2546945 16.592702 7.3155384 16.673775 7.375 16.755859 C 7.4357185 16.839676 7.4957592 16.923102 7.5605469 17.003906 C 7.6277579 17.087752 7.6999889 17.167543 7.7714844 17.248047 C 7.8369846 17.321788 7.9016863 17.39594 7.9707031 17.466797 C 7.9907004 17.487332 8.0070552 17.510962 8.0273438 17.53125 L 16.103516 25.607422 z " color="#000" font-family="sans-serif" font-weight="400" transform="translate(-5 1031.362)"/><path style="line-height:normal;text-indent:0;text-align:start;text-decoration-line:none;text-decoration-style:solid;text-decoration-color:#000;text-transform:none;block-progression:tb;isolation:auto;mix-blend-mode:normal" d="M 7.859375,0 C 4.0779092,0 1,3.0713563 1,6.8476562 c 0,3.6113998 2.6002439,6.3299598 6.4335938,6.7558598 0.0089,0.1858 0.010955,0.443831 0.00586,0.707031 -0.010587,0.5468 -0.041016,1.097656 -0.041016,1.097656 a 0.50005,0.50005 0 0 0 -0.00195,0.02734 c 0,0.1709 0.1268349,0.383897 0.2578125,0.466797 0.1309775,0.083 0.2346412,0.09366 0.3183593,0.09766 0.1674367,0.01 0.2945111,-0.02431 0.4394532,-0.07031 0.2898841,-0.092 0.6256157,-0.263291 0.9824218,-0.525391 0.6615524,-0.4859 1.3448714,-1.339331 1.6777344,-2.519531 1.422076,-0.5691 2.390227,-1.400935 2.929687,-2.427735 C 14.572382,9.3712312 14.716797,8.1311563 14.716797,6.8476562 14.716793,3.0713563 11.64084,0 7.859375,0 Z m 0,1 c 3.241956,0 5.857418,2.6127563 5.857422,5.8476562 0,1.2061001 -0.144109,2.2754782 -0.599609,3.1425782 C 12.661686,10.857234 11.905197,11.5612 10.521484,12.0625 a 0.50005,0.50005 0 0 0 -0.318359,0.363281 c -0.2313246,1.0638 -0.8471665,1.767428 -1.4003906,2.173828 -0.1519373,0.1116 -0.2528224,0.142132 -0.3808594,0.207032 0.00804,-0.1961 0.012934,-0.236663 0.017578,-0.476563 0.00553,-0.2856 0.00667,-0.57204 -0.00586,-0.80664 -0.00626,-0.1173 -0.014137,-0.217419 -0.035156,-0.324219 -0.010509,-0.053 -0.020482,-0.107206 -0.060547,-0.191407 -0.020032,-0.042 -0.046781,-0.094 -0.1113281,-0.158203 C 8.1620155,12.785609 8.0377018,12.706766 7.890625,12.697266 4.2408466,12.462366 2,10.115656 2,6.8476562 2,3.6127563 4.6174182,1 7.859375,1 Z m 0.2773438,0.9960938 0,0.00586 -0.027344,0 c 0.034057,0 -0.085354,-0.027 -0.3105469,0 l -0.4394531,0.054687 0,1.65625 c 0.00112,0.4219 -0.1045072,0.7733875 -0.265625,0.9921875 -0.067046,0.09105 -0.1476759,0.153444 -0.2363281,0.2089844 A 0.50004994,0.50004994 0 0 0 6.359375,4.4453125 l -2,0 a 0.50004994,0.50004994 0 0 0 -0.5,0.5 l 0,5.5546875 a 0.50004994,0.50004994 0 0 0 0.5,0.5 l 2,0 a 0.50004994,0.50004994 0 0 0 0.5,-0.5 l 0,-0.5703125 c 0.1305041,0.040128 0.265421,0.068359 0.4082031,0.068359 l 3.5273439,0 c 0.395783,0 0.750011,-0.1960656 0.96875,-0.4472657 0.218116,-0.2505 0.336762,-0.5398593 0.423828,-0.8183593 0.01297,-0.033 0.388537,-0.9840281 0.617188,-1.7988281 0.151329,-0.5394 0.0039,-1.0639438 -0.28711,-1.4023438 C 12.226574,5.19295 11.826242,5.0058594 11.40625,5.0058594 l -1.5371094,0 0,-1.5957032 c 0,-0.4070999 -0.2035253,-0.7913625 -0.5175781,-1.0390624 -0.3140528,-0.2478001 -0.7273026,-0.375 -1.1875,-0.375 l -0.027344,0 z M 8.359375,3.0507812 c 0.1420327,0.029 0.3050679,0.050016 0.3730469,0.1035157 0.1035931,0.082 0.1367187,0.1549594 0.1367187,0.2558593 l 0,1.7890626 0,0.8066406 2.5371094,0 c 0.08809,0 0.257784,0.065934 0.353516,0.1777344 0.09573,0.1113 0.15149,0.2329687 0.08203,0.4804687 -0.208994,0.7448 -0.595703,1.734375 -0.595703,1.734375 l -0.0059,0.017578 -0.0059,0.015625 c -0.06421,0.2058 -0.149646,0.3748375 -0.224609,0.4609375 -0.07496,0.086 -0.102545,0.1054688 -0.214844,0.1054688 l -3.5273439,0 c -0.2206641,0 -0.3828274,-0.1525901 -0.4082031,-0.3632813 l 0,-2.6523437 C 7.2906532,5.8720744 7.6550346,5.6273826 7.8984375,5.296875 8.226674,4.851075 8.3609235,4.2904844 8.359375,3.7089844 l 0,-0.6582032 z m -3.5,2.3945313 1,0 0,2.5527344 -0.00977,0 0,0.5839843 c 0,0.032129 0.0076,0.062125 0.00977,0.09375 l 0,1.3242188 -1,0 0,-4.5546875 z" color="#000" font-family="sans-serif" font-weight="400" overflow="visible" transform="translate(.142 1037.362)"/></g></svg>